<svg xmlns="http://www.w3.org/2000/svg" width="51.608" height="45.299" viewBox="0 0 51.608 45.299">
  <defs>
    <style>
      .cls-1 {
        fill: #6a9f46;
      }
    </style>
  </defs>
  <path id="Icon_awesome-shopping-cart" data-name="Icon awesome-shopping-cart" class="cls-1" d="M47.318,26.659l4.236-18.4a2.13,2.13,0,0,0-2.1-2.594H14.265L13.443,1.7A2.144,2.144,0,0,0,11.337,0H2.15A2.137,2.137,0,0,0,0,2.123V3.539A2.137,2.137,0,0,0,2.15,5.662H8.412l6.294,30.385a4.974,4.974,0,1,0,7.514,4.3,4.909,4.909,0,0,0-1.507-3.539H39.5a4.909,4.909,0,0,0-1.507,3.539,5.018,5.018,0,1,0,7.205-4.46l.494-2.148a2.13,2.13,0,0,0-2.1-2.594H19.543l-.586-2.831H45.221A2.145,2.145,0,0,0,47.318,26.659Z"/>
</svg>
