<svg xmlns="http://www.w3.org/2000/svg" viewBox="0 0 1872.34 1816.69"><defs><style>.cls-1{fill:#e2b96d;}.cls-2{fill:#bb913a;}.cls-3{fill:#f5d9a6;}.cls-4{fill:#7da95e;}.cls-5{fill:#826023;}</style></defs><g id="Camada_2" data-name="Camada 2"><g id="Guias"><path class="cls-1" d="M1863.13,976.23c-49.39,22.77-96.05,42.62-141.08,65.58-45.23,23.09-84,54.7-114.71,94.1-23-24.12-45.78-48.06-69.69-73.13,16.55-25.63,40.74-46,67.69-63.67,56.83-37.25,119.93-59.08,185.24-74.15,10.56-2.44,25.92,1.64,33.83,8.22C1839.69,945.9,1851.22,962.55,1863.13,976.23Z"/><path class="cls-1" d="M932,1173.64C929.61,1027.5,943,888.3,1039,758.87c15.4,24.39,29.43,46,42.51,68.22,1.4,2.39-1.83,8.35-4.26,11.86-30.84,44.51-57.42,91.24-73.82,141.39-13.84,42.28-22.67,85.87-31.62,129.15-2.64,12.73-6.23,23.41-15.12,33.34C948.86,1151.62,941.93,1161.15,932,1173.64Z"/><path class="cls-1" d="M1667.24,1385.5c.7-17.07,1.14-33.78,2.29-50.49.23-3.23,2.93-6.7,5.08-9.69,61.25-85.23,97-178,109.49-277.48,1.12-9,4.25-13.77,13.36-17,23.33-8.41,46.38-17.65,74.88-28.61-5.41,29.81-8,55.94-15.13,81.22-32.41,115.23-102.32,211.64-187,300.32A16.33,16.33,0,0,1,1667.24,1385.5Z"/><path class="cls-2" d="M1001.82,1006.23q-23.9,63-47.64,126Q886.8,1311,819.58,1489.81a86.76,86.76,0,0,0,.9,34.19c8.6,36.58,31.67,60.69,69,71.9,27.72,8.33,55.62,16.2,83.44,24.25q53.08,15.33,106.18,30.63,61.18,17.73,122.33,35.57,106.5,30.9,213,61.74c2.51.72,5,1.47,7.56,2.14,15,4,29.61,9.22,45,11.67,52.38,8.35,105.48-22.63,124.61-71.7q20.84-53.45,41.76-106.86,21.86-56,43.68-112,20.24-51.78,40.51-103.54c12.17-31.09,24.51-62.13,36.48-93.27,5.64-14.68,11.93-29.35,15.61-44.38,9.59-39.2-8.34-79.56-42.85-100.34-12.24-7.37-26.09-11.19-39.9-15.19q-114.43-33.18-228.88-66.33-55-15.94-110.11-31.8-107.2-31.08-214.4-62.17a99,99,0,0,0-17.54-3.64c-39.66-4-73.42,8.75-100.77,38.21C1010.24,994.15,1006.24,1000.19,1001.82,1006.23Z"/><path class="cls-3" d="M925.72,1059.73q-23.85,63-47.56,126-67.26,178.82-134.37,357.68a86.76,86.76,0,0,0,.92,34.19c8.59,36.58,31.65,60.68,68.93,71.89,27.69,8.32,55.56,16.18,83.36,24.22q53,15.33,106.09,30.61,61.12,17.72,122.22,35.54,106.39,30.87,212.83,61.67c2.52.73,5,1.48,7.56,2.15,14.94,4,29.58,9.21,44.91,11.65,52.33,8.34,105.37-22.66,124.47-71.74q20.81-53.46,41.69-106.88,21.82-56,43.61-112,20.19-51.79,40.44-103.56c12.15-31.09,24.47-62.14,36.42-93.29,5.63-14.68,11.91-29.35,15.58-44.39,9.57-39.2-8.35-79.55-42.83-100.33-12.23-7.37-26.07-11.18-39.87-15.18q-114.34-33.15-228.68-66.27-55-15.93-110-31.78-107.11-31-214.21-62.1a98.94,98.94,0,0,0-17.52-3.64c-39.63-4-73.35,8.77-100.67,38.24C934.13,1047.65,930.13,1053.7,925.72,1059.73Zm176.83,22.18q37.9,10.74,75.75,21.68,117.83,34.2,235.61,68.49c41.16,12,82.42,23.69,123.5,35.85,48.78,14.45,77,59.7,67.88,108.75a118,118,0,0,1-6.06,20.58c-13,33.72-26.2,67.36-39.31,101q-43.26,111.12-86.59,222.22c-3.9,10-7.75,20.31-13.76,29.27-25.88,38.55-70.15,57.8-112,51.72-13.29-1.93-26.15-5.94-39-9.62q-83-23.79-165.82-47.94l-27.56-8,0,0q-107.25-31.08-214.47-62.2c-32.64-9.55-54.67-29.93-65.64-60.8-7.81-22-6.87-44.37,1.75-67.05q53.34-140.29,106.64-280.61c7.32-19.27,14.6-38.55,22.07-57.78a98,98,0,0,1,22.52-34.16c28.22-28,62-39.29,100.83-34.39A93,93,0,0,1,1102.55,1081.91Z"/><path class="cls-2" d="M1115.28,1675.91q-107.25-31.08-214.47-62.2c-32.64-9.55-54.67-29.93-65.64-60.8-7.81-22-6.87-44.37,1.75-67.05q53.34-140.29,106.64-280.61c7.32-19.27,14.6-38.55,22.07-57.78a98,98,0,0,1,22.52-34.16c28.22-28,62-39.29,100.83-34.39a93,93,0,0,1,13.57,3q37.9,10.74,75.75,21.68,117.83,34.2,235.61,68.49c41.16,12,82.42,23.69,123.5,35.85,48.78,14.45,77,59.7,67.88,108.75a118,118,0,0,1-6.06,20.58c-13,33.72-26.2,67.36-39.31,101q-43.26,111.12-86.59,222.22c-3.9,10-7.75,20.31-13.77,29.27-25.87,38.55-70.14,57.8-112,51.72-13.29-1.93-26.15-5.94-39-9.62q-83-23.79-165.82-47.94l-27.56-8ZM923.5,1344.4l-1.54,4q-28.31,74.37-56.6,148.75a48,48,0,0,0-1.83,5.59c-9,37.26,11.17,71.56,48.42,82.35l52.5,15.21q187.74,54.4,375.49,108.77a101,101,0,0,0,11.53,2.65c36.68,6.1,75.31-15.67,88.66-50q27-69.42,54-138.87l4.61-11.87Zm13.19-34.72,575.52,166.77,1.7-4.39q27.58-70.92,55.12-141.85c1.56-4,2.91-8.14,4.07-12.26,9.65-34.39-11-70.94-45.79-81.13q-49.18-14.37-98.43-28.53-126.63-36.58-253.25-73.15c-24.45-7.07-48.82-14.39-73.29-21.42-7.59-2.18-15.22-4.66-23.11-5.55a81.52,81.52,0,0,0-85.57,51.76L938.46,1305C937.9,1306.49,937.34,1308,936.69,1309.68Z"/><path class="cls-1" d="M923.5,1344.4l575.25,166.68-4.61,11.87q-27,69.43-54,138.87c-13.35,34.28-52,56-88.66,50a101,101,0,0,1-11.53-2.65q-187.76-54.34-375.49-108.77L912,1585.14c-37.25-10.79-57.43-45.09-48.42-82.35a48,48,0,0,1,1.83-5.59q28.29-74.39,56.6-148.75Z"/><path class="cls-1" d="M936.69,1309.68c.65-1.72,1.21-3.19,1.77-4.65l55.2-145.1a81.52,81.52,0,0,1,85.57-51.76c7.89.89,15.52,3.37,23.11,5.55,24.47,7,48.84,14.35,73.29,21.42q126.61,36.61,253.25,73.15,49.23,14.22,98.43,28.53c34.83,10.19,55.44,46.74,45.79,81.13-1.16,4.12-2.51,8.23-4.07,12.26q-27.51,70.93-55.12,141.85l-1.7,4.39Z"/><path class="cls-4" d="M1597.49,882c-8.2,5-16.25,10.47-24.63,14.85a281.85,281.85,0,0,1-28,12.67,268.94,268.94,0,0,1-28.8,9.55c-13.5,3.58-27,6.52-40.56,9.36-7.57,1.59-15.14,2.53-22.7,3.57-6,.83-12,1.35-18,2-.39,0-.79.19-2,.5,4.39,3.86,8.2,7.44,12.25,10.71a106.52,106.52,0,0,0,29.81,16.86,134.41,134.41,0,0,0,46.82,8.53c21.61.13,43.29-4.35,65-13a207.84,207.84,0,0,0,95-77c12.73-19.17,21.17-39.45,24.12-61,1-7.13,1-7.24-5.48-7.4-18.33-.46-36.63-1.09-55-1.16a238.67,238.67,0,0,0-59.4,6.74,244.35,244.35,0,0,0-50.84,19A294.69,294.69,0,0,0,1488.83,866,372.69,372.69,0,0,0,1449,901.28c-5.76,5.89-11.29,12-17.53,18.71,3.37,0,6.06.07,8.8-.13,17.33-1.26,34.62-2,52-4.06A290.66,290.66,0,0,0,1555,901.28a245.87,245.87,0,0,0,34.56-15.43c2.6-1.4,5.06-3.22,7.59-4.85Z"/><path class="cls-4" d="M1368.25,745.36c.87,8.85,1.22,17.9,2.74,26.49a218.56,218.56,0,0,0,6.74,27.47,208.27,208.27,0,0,0,10,26c5.43,11.65,11.46,22.92,17.55,34.11,3.41,6.27,7.38,12.13,11.25,18,3.08,4.69,6.41,9.17,9.62,13.76A18.12,18.12,0,0,1,1427,893c-6.12-.61-11.62-1-17-1.75a112.85,112.85,0,0,1-33.43-10.07,120.59,120.59,0,0,1-37-27.17c-13.79-14.94-23.63-32.85-29.89-53.39a161.51,161.51,0,0,1-6.81-51.19A177.67,177.67,0,0,1,1316.21,686c8.53-20.94,20.77-39.6,37.57-55.25,5.56-5.17,5.61-5.29,9.88-.86,12,12.44,24.12,24.76,35.83,37.5,12.44,13.54,23.39,28.42,31.73,45.52a189.23,189.23,0,0,1,15.66,47.35,234.61,234.61,0,0,1,3.9,50.54,312.84,312.84,0,0,1-5.3,50c-1.45,7.73-3.27,15.45-5.1,24-2.1-2.37-3.9-4.17-5.46-6.2-9.86-12.84-20.19-25.3-29.37-38.73a227.76,227.76,0,0,1-27.1-52.76,190.93,190.93,0,0,1-8.51-33.76c-.43-2.69-.41-5.55-.6-8.33Z"/><path class="cls-2" d="M1243.54,1569.71q-39.16-13.35-78.36-26.6c-1.11-.37-3.49.15-4.08,1-5.45,7.69-13.75,10.91-22.18,13.58-35.37,11.23-81.51-3.11-101-31.26-5.82-8.41-9.06-17.75-7.28-28.34,2.54-15.08,12.89-24.34,27-30.34,14.38-6.12,29.25-7.15,44.13-5.24,22,2.82,41.29,10.84,56.4,26,6.16,6.18,10.86,13.31,13.15,21.79.39,1.46,1.17,3.08.8,4.46-1.49,5.54,2.23,6.27,6.39,7.31q54.72,13.8,109.38,27.83c15,3.82,30,7.6,45,11.46,7.85,2,9.66,5.62,6.77,13-2.05,5.25-4.07,10.5-6.15,15.74-2.22,5.57-6.74,7.9-12.43,6q-38.79-13.1-77.5-26.41Z"/><path class="cls-2" d="M1113.16,1294.52l4.77,1.4c25.82,7.57,51.68,15,77.44,22.76,9.45,2.84,12.3-1.82,13.5-9.21.31-1.89-1.89-4.29-3.52-5.93-1.06-1.06-3.16-1.22-4.83-1.71l-80-23.45-5.2-1.52,3.13-8.1,4.82,1.41L1205,1294.1c8.17,2.39,13-.79,13.6-9.09.29-4-2.52-5.82-6.13-6.88q-32.51-9.5-65-19l-22.66-6.64,3.57-9.24,5,1.47q41.06,12,82.1,24c6.76,2,10,.26,12.27-6.22,1.94-5.63.41-8.37-5.9-10.22q-39.37-11.57-78.78-23.08l-5-1.45c7.47-5.41,14.85-7.38,22.85-6.85a38,38,0,0,1,8.16,1.51q38,11,75.88,22.23c13.85,4.11,22.11,15.38,20.44,28-.42,3.17-1.88,6.28-2.85,9.43-1.6,5.19-1.17,6.15,4,7.46q69.39,17.78,138.81,35.5c6.47,1.65,12.94,3.32,19.36,5.09,6.22,1.72,8.07,5.53,5.75,11.55q-3.21,8.28-6.47,16.55c-2.34,5.93-6.54,8-12.71,6-16.15-5.36-32.24-10.87-48.34-16.35-35.48-12.06-71-24.07-106.41-36.27-4-1.38-5.7-.26-6.72,3.36-5.67,20.25-26.78,25.3-41.89,20.51-24.77-7.85-49.92-14.77-74.9-22.12C1123.28,1310.49,1116.69,1304.63,1113.16,1294.52Z"/><path class="cls-3" d="M1318.7,1317.08c-6.16,15.83-24.38,24.78-40.7,20s-24.58-21.5-18.43-37.33,24.36-24.78,40.7-20S1324.85,1301.25,1318.7,1317.08Z"/><path class="cls-3" d="M1228.55,1548.85c-6.16,15.82-24.34,24.79-40.61,20s-24.49-21.47-18.34-37.3,24.32-24.79,40.61-20S1234.7,1533,1228.55,1548.85Z"/><polygon class="cls-5" points="1551.19 1132.04 1203.7 1030.2 1208.38 1018.07 1555.93 1119.93 1551.19 1132.04"/><path class="cls-4" d="M1095.79,226.13h110.14c111.35-4,229-96.19,264.19-210.85H1161.94a495.57,495.57,0,0,0-51.76,2.78c-5-.34-10.11-.66-15.16-1-93.5,2.26-187.12.33-280.68,1.08-41.85.33-64.29,22.86-57.83,57.62,5.78,31.07,30.85,41.88,62.73,42.08,7.14,0,14.28,0,21.43,0A779.61,779.61,0,0,0,735.1,199.29c-3.27.15-6.53.41-9.8.49-93.51,2.26-187.14.33-280.72,1.08-41.85.33-64.29,22.87-57.83,57.62,5.78,31.08,30.85,41.89,62.73,42.09,63.58.39,127.19-.67,190.75.52.95,0,1.85.16,2.78.2a682,682,0,0,0-72.15,120q-237.33-.18-474.65-.09c-16.78,0-33.75-.51-50.28,1.55C16.85,426.36,1,443.68,0,469.16c-.88,23.67,11.3,42.27,39.08,47.49a274.88,274.88,0,0,0,49.79,4.72c146.37.36,292.74.16,439.11.29,2.28,0,4.3.29,6.48.4C523.83,563.39,519,603.22,519.19,641c-24,.35-48.14-.34-72.13.81-38.11,1.83-61.45,22.29-60.75,51.2.75,31,22.28,48.76,61.32,50.24,12,.45,24,.13,36,.16q25.29.08,50.59.16c1,3.19,1.72,6.51,2.78,9.65a300.93,300.93,0,0,0,68,111.18c-39.75-.08-79.53-.5-119.26.53-16,.41-39.05,7-45.86,17.56-9.35,14.53-14.62,39.94-6.41,52.65,9.21,14.25,35.34,27.37,54.24,27.54q166.47,1.46,333,1.37l1.09-2.16c13.87,1.28,28,2.16,42.59,2.16h104.1c115.95,0,239.92-94.88,275.47-210.83H930.44c-38,0-71-7.91-97.84-22.41-51.93-26.34-84.87-75.1-93-135.71H900.33c115,0,238.56-94.88,274.6-210.84h-368C877,290.69,989.54,226.13,1095.79,226.13Z"/><path class="cls-4" d="M470,90.51a197.71,197.71,0,0,0,58.82,29.59,198.8,198.8,0,0,0,53.52,9.05c22.68.64,44-2.49,63.63-9.81A130.69,130.69,0,0,0,685.86,96a103.74,103.74,0,0,0,21.59-25.32c2.6-4.33,4.88-8.86,7.6-13.85-1.24.13-1.66.13-2,.22-5.68,1.39-11.31,2.9-17.06,4.15-7.24,1.57-14.47,3.23-21.9,4.3-13.29,1.91-26.62,3.74-40.13,5a261.44,261.44,0,0,1-29.45.89,273.47,273.47,0,0,1-29.78-2.24c-9.12-1.2-18.28-3.51-27.43-5.33,0-.35,0-.69,0-1,2.85.65,5.7,1.49,8.54,1.9a238.8,238.8,0,0,0,36.68,2.57,282.34,282.34,0,0,0,62.06-7.65c16.59-3.88,32.6-9,48.83-13.63,2.56-.73,5-1.73,8.07-2.81-7.91-4-15-7.78-22.23-11.24A361.68,361.68,0,0,0,641.1,13,285.34,285.34,0,0,0,589.22,1.7a236.43,236.43,0,0,0-52.74-.43A231.66,231.66,0,0,0,480,14.9c-16.77,6.2-33.26,12.87-49.83,19.4-5.9,2.32-5.8,2.4-2.54,8.57C437.55,61.56,452,77.26,470,90.51Z"/><path class="cls-4" d="M347.92,695.65c-7.25,1.57-14.47,3.23-21.91,4.3-13.28,1.92-26.61,3.75-40.13,5a263.76,263.76,0,0,1-29.45.88,276.15,276.15,0,0,1-29.78-2.23c-9.11-1.21-18.28-3.52-27.42-5.34,0-.34,0-.69,0-1,2.84.64,5.7,1.48,8.54,1.9a239.89,239.89,0,0,0,36.68,2.57A282.25,282.25,0,0,0,306.48,694c16.6-3.87,32.6-9,48.84-13.62,2.56-.73,5-1.73,8.07-2.82-7.92-4-15-7.78-22.23-11.23a362.27,362.27,0,0,0-48.1-18.88,286.37,286.37,0,0,0-51.88-11.28,237,237,0,0,0-52.74-.43A231.89,231.89,0,0,0,132,649.39c-16.78,6.2-33.27,12.87-49.84,19.4-5.9,2.33-5.8,2.4-2.53,8.58C89.5,696.06,104,711.76,122,725A202,202,0,0,0,234.3,763.64c22.68.65,44-2.49,63.64-9.8a130.51,130.51,0,0,0,39.88-23.39,103.65,103.65,0,0,0,21.58-25.31c2.6-4.33,4.88-8.87,7.6-13.85-1.24.13-1.65.13-2,.22C359.29,692.89,353.66,694.41,347.92,695.65Z"/><path class="cls-4" d="M210.1,266.56a120,120,0,0,0,66.78,23,99.63,99.63,0,0,0,37.83-5.83,77.5,77.5,0,0,0,23.7-13.9,61.22,61.22,0,0,0,12.83-15.05c1.55-2.57,2.91-5.27,4.52-8.23-.73.08-1,.07-1.2.13-3.38.82-6.73,1.72-10.14,2.46-4.31.94-8.6,1.92-13,2.56-7.9,1.14-15.83,2.23-23.86,3a154,154,0,0,1-17.51.53,161.15,161.15,0,0,1-17.7-1.33c-5.42-.71-10.87-2.09-16.3-3.17l0-.61c1.7.38,3.39.88,5.08,1.13a141.34,141.34,0,0,0,21.81,1.52,167.35,167.35,0,0,0,36.89-4.55c9.86-2.3,19.38-5.35,29-8.1,1.52-.43,3-1,4.79-1.67-4.7-2.39-8.92-4.63-13.21-6.68a215.71,215.71,0,0,0-28.6-11.22A170.78,170.78,0,0,0,281,213.76a140.65,140.65,0,0,0-31.35-.25,138.1,138.1,0,0,0-33.55,8.1c-10,3.69-19.77,7.65-29.63,11.54-3.5,1.38-3.44,1.42-1.5,5.09C190.8,249.35,199.39,258.69,210.1,266.56Z"/><path class="cls-1" d="M1156.35,1002.82c-1.93-91.09-8-107.86-94.16-257,23.91-11.74,48.06-21.7,74.69-17.26,7.42,1.23,15.78,5,20.4,10.28,46.15,52.75,85.34,109.66,101.35,178.8,4.29,18.58,3.64,38.53,4.34,57.94.1,2.85-4.52,8.37-7.51,9C1222.82,991,1190.09,996.73,1156.35,1002.82Z"/></g></g></svg>