<svg xmlns="http://www.w3.org/2000/svg" viewBox="0 0 3124.44 886.06"><defs><style>.cls-1{fill:#b69242;}.cls-2{fill:#7da95e;}.cls-3{fill:#e2b96d;}.cls-4{fill:#56793c;}.cls-5{fill:#bb913a;}.cls-6{fill:#f5d9a6;}.cls-7{fill:#826023;}</style></defs><g id="Camada_2" data-name="Camada 2"><g id="Guias"><path class="cls-1" d="M838.41,713.48h44.8q17.46,0,30,3.24a54.92,54.92,0,0,1,22.69,12.15q26.49,22.68,26.5,69a135,135,0,0,1-2.66,27.9,82.22,82.22,0,0,1-8.22,22.73,70.58,70.58,0,0,1-14.24,18.13,59.33,59.33,0,0,1-14.93,9.84,66.79,66.79,0,0,1-17.43,5.2,132.67,132.67,0,0,1-21,1.51H839.11q-9.37,0-14.12-2.83a13.18,13.18,0,0,1-6.21-8A51.24,51.24,0,0,1,817.35,859V734.54c0-7.4,1.66-12.78,5-16.09S831,713.48,838.41,713.48Zm13.31,27.2V855.85h26c5.72,0,10.18-.16,13.43-.46a41.88,41.88,0,0,0,10.07-2.32,26.89,26.89,0,0,0,9-5.21q17.26-14.58,17.25-50.23,0-25.11-7.59-37.62t-18.68-15.93q-11.12-3.41-26.86-3.4Z"/><path class="cls-1" d="M1151.82,740h-77.44v41.67h71.31q7.88,0,11.73,3.55a11.88,11.88,0,0,1,3.89,9.3,12.51,12.51,0,0,1-3.82,9.45c-2.54,2.41-6.48,3.63-11.8,3.63h-71.31v48.27h80.1q8.1,0,12.2,3.75a12.92,12.92,0,0,1,4.12,10,12.64,12.64,0,0,1-4.12,9.79q-4.1,3.75-12.2,3.75h-93.41q-11.22,0-16.16-5T1040,862.1V734.54a28.74,28.74,0,0,1,2.19-12.08,13.67,13.67,0,0,1,6.88-6.85,29.22,29.22,0,0,1,12-2.13h90.75c5.49,0,9.54,1.2,12.22,3.65a12.35,12.35,0,0,1,4,9.54,12.6,12.6,0,0,1-4,9.68C1161.36,738.76,1157.31,740,1151.82,740Z"/><path class="cls-1" d="M1279.22,731.42V854.93h69.68c5.56,0,9.82,1.34,12.8,4.05a13.18,13.18,0,0,1,4.45,10.18,12.8,12.8,0,0,1-4.4,10.12q-4.41,3.88-12.85,3.89h-83c-7.48,0-12.88-1.67-16.16-5s-4.91-8.68-4.91-16.09V731.42q0-10.42,4.68-15.63a15.83,15.83,0,0,1,12.33-5.21,16.41,16.41,0,0,1,12.58,5.17Q1279.21,720.88,1279.22,731.42Z"/><path class="cls-1" d="M1437.52,865.11V731.42c0-6.95,1.57-12.16,4.75-15.63a15.84,15.84,0,0,1,12.27-5.21,16.4,16.4,0,0,1,12.57,5.17q4.79,5.13,4.79,15.67V865.11q0,10.53-4.79,15.74a16.33,16.33,0,0,1-12.57,5.21,15.85,15.85,0,0,1-12.21-5.25Q1437.52,875.53,1437.52,865.11Z"/><path class="cls-1" d="M1582.86,733.15l38.43,113.79,38.54-114.6q3-9,4.52-12.57a16.65,16.65,0,0,1,5-6.34q3.48-2.85,9.5-2.85a15.83,15.83,0,0,1,8.14,2.2,16.21,16.21,0,0,1,5.93,5.84A14.6,14.6,0,0,1,1695,726a24.54,24.54,0,0,1-.69,5.51,54.87,54.87,0,0,1-1.74,5.79c-.69,1.87-1.39,3.82-2.08,5.83L1649.41,854c-1.45,4.24-2.94,8.29-4.39,12.08a51.49,51.49,0,0,1-5.1,10.1,22.17,22.17,0,0,1-19.44,9.88,23.62,23.62,0,0,1-11.76-2.71,22.32,22.32,0,0,1-7.74-7.17,52.34,52.34,0,0,1-5.16-10.14c-1.46-3.78-2.94-7.8-4.4-12L1551,744c-.7-2-1.42-4-2.13-5.91a41.32,41.32,0,0,1-1.86-6.25,26.18,26.18,0,0,1-.76-5.67,15.06,15.06,0,0,1,4.75-10.77,16,16,0,0,1,11.92-4.86c5.86,0,10,1.79,12.43,5.4S1580.31,725.28,1582.86,733.15Z"/><path class="cls-1" d="M1880.06,740h-77.44v41.67h71.31q7.88,0,11.73,3.55a11.88,11.88,0,0,1,3.89,9.3,12.51,12.51,0,0,1-3.82,9.45c-2.54,2.41-6.48,3.63-11.8,3.63h-71.31v48.27h80.1q8.1,0,12.2,3.75a12.92,12.92,0,0,1,4.12,10,12.64,12.64,0,0,1-4.12,9.79q-4.1,3.75-12.2,3.75h-93.41q-11.22,0-16.16-5c-3.26-3.31-4.91-8.68-4.91-16.09V734.54a28.73,28.73,0,0,1,2.2-12.08,13.67,13.67,0,0,1,6.88-6.85,29.22,29.22,0,0,1,12-2.13h90.75c5.49,0,9.54,1.2,12.22,3.65a12.35,12.35,0,0,1,4,9.54,12.6,12.6,0,0,1-4,9.68C1889.6,738.76,1885.55,740,1880.06,740Z"/><path class="cls-1" d="M2020,810.59h-12v54.52c0,7.18-1.57,12.46-4.75,15.86a16.13,16.13,0,0,1-12.38,5.09c-5.49,0-9.72-1.78-12.73-5.32s-4.52-8.75-4.52-15.63V734.54c0-7.4,1.67-12.78,5-16.09s8.68-5,16.09-5h55.91a171.63,171.63,0,0,1,19.79,1,50,50,0,0,1,14.82,4,43.19,43.19,0,0,1,14.12,9.61,41.53,41.53,0,0,1,9.3,14.54,48.13,48.13,0,0,1,3.2,17.52q0,19-10.7,30.33t-32.48,16.09a63,63,0,0,1,17.48,14.35,155.9,155.9,0,0,1,25,39.55c2.46,5.74,3.66,9.7,3.66,11.85a12.37,12.37,0,0,1-2.13,6.67,15.05,15.05,0,0,1-5.86,5.18,18.12,18.12,0,0,1-8.56,1.92,16.7,16.7,0,0,1-9.73-2.71,26.78,26.78,0,0,1-6.78-6.89q-2.8-4.17-7.69-12.27l-13.77-22.92q-7.39-12.62-13.27-19.22t-11.85-9C2031.12,811.4,2026.05,810.59,2020,810.59Zm19.68-71.3h-31.72v46.65h30.79a87.22,87.22,0,0,0,20.84-2.13c5.62-1.44,9.93-3.87,12.89-7.32s4.47-8.15,4.47-14.17a22.09,22.09,0,0,0-3.59-12.45,21.8,21.8,0,0,0-10-8Q2057.36,739.31,2039.64,739.29Z"/><path class="cls-1" d="M2220.51,865.11V811.29l-41.44-64.24a140.21,140.21,0,0,1-7.71-13.55,21,21,0,0,1-2.24-8.45,13.48,13.48,0,0,1,4.56-10.18,16,16,0,0,1,11.29-4.29c4.7,0,8.29,1.32,10.7,4s6.09,8,10.95,15.9L2238.34,782l32.06-51.51q2.88-4.75,4.86-8a47.65,47.65,0,0,1,4.35-6.07,17.07,17.07,0,0,1,5.26-4.35,15.16,15.16,0,0,1,7.06-1.51,14.93,14.93,0,0,1,10.83,4.24,13.29,13.29,0,0,1,4.33,9.77,20.55,20.55,0,0,1-2.2,9,118.09,118.09,0,0,1-7.52,12.5l-42.48,65.17v53.82q0,10.53-4.86,15.74a16.18,16.18,0,0,1-12.39,5.21,16,16,0,0,1-12.38-5.16C2222.08,877.47,2220.51,872.22,2220.51,865.11Z"/><path class="cls-2" d="M1106.08,511.93c-60.68,57.94-141.28,95.88-219.63,97.26a18.88,18.88,0,0,1-5.71.69c-137.27,0-214.13-111.74-172.34-248.32,42-137.25,184.64-248.31,319-248.31h5.39c75.88,1.39,133.1,39.32,159.76,97.26-26.79,24.83-61.92,40.69-95.19,40.69a89.29,89.29,0,0,1-39.49-9,69.82,69.82,0,0,0-12.71-7.59c-14-7.58-31.36-11-50.34-11-75.3,0-154.15,61.39-177.2,137.94-22.86,75.88,19.54,138,95.74,138A154.58,154.58,0,0,0,971,487.79a143.85,143.85,0,0,0,17.31-7.59,127.6,127.6,0,0,1,44.93-8.28C1066.82,471.92,1093.31,487.1,1106.08,511.93Z"/><path class="cls-2" d="M1658.91,361.56c-36.3,137.27-176.72,248.32-314,248.32s-216.56-111-177.31-248.32,179.67-248.31,314-248.31S1695.22,224.31,1658.91,361.56Zm-109.17,0c20.42-75.87-23.9-137.94-98.51-137.94-75.29,0-153.1,62.07-174.43,137.94-21.53,76.57,22.3,138,98.5,138C1450.81,499.52,1529.12,438.13,1549.74,361.56Z"/><path class="cls-3" d="M2078.76,458.13c-19.62,80-98.6,146.23-179.11,151.06l-.18.69h-147.6c-60.71,0-97.33-49.67-81.4-110.36l50.68-193.13h177c22.46,0,45.56-18.63,51.31-41.39,5.93-23.45-7.85-41.38-30.23-41.38h-67.82c-59.7,0-95.49-49.66-79.56-110.37h175.49c14.17,0,27.32,1.39,39.1,5.52,57.62,17.94,89,76.57,71.74,146.23A188.63,188.63,0,0,1,2032,323.63C2072.74,349.15,2093.13,399.5,2078.76,458.13Zm-109.64,0c5.86-23.45-8.12-41.38-30.69-41.38h-136.8l-21.33,82.77h137.3C1940.25,499.52,1963.43,480.89,1969.12,458.13Z"/><path class="cls-3" d="M2932.15,361.56l91.59,248.32h-64.15c-39.32,0-70.18-20.7-82.82-52.42L2846,471.92l-.83.69.14-.69-67,85.54c-26.77,31.72-65.71,52.42-105.71,52.42h-63.46l196.73-248.32-87.14-248.31h62.1c38.47,0,67.92,20,80.2,51l31,86.91h.68l67.78-86.91c25.42-31,63.35-51,101.14-51h62.78Z"/><path class="cls-4" d="M2567.09,513.41A84.17,84.17,0,0,1,2536.78,561q.81-143.08,1.63-286.19a50.09,50.09,0,0,0-17.75-27.65L2553,214A41.82,41.82,0,0,1,2567,242.76Q2567.07,378.09,2567.09,513.41Z"/><path class="cls-3" d="M2608.57,101.45c-21.46,18.72-42,35.55-61.22,53.72a178.28,178.28,0,0,0-43.76,64.15l-45.78-26.47c4.54-15.32,13.7-29.1,24.63-41.95,23.06-27.08,51.54-47.33,82.13-64.52,4.95-2.78,13.27-3,18.21-.85C2592.32,89.67,2600.57,96.34,2608.57,101.45Z"/><path class="cls-3" d="M2257.45,218.86c-14.38-45.47-19.92-53-85.13-115.22,10.28-9.41,20.95-18,35-19.66,3.91-.47,8.66.19,11.76,2.16,31,19.7,59,42.52,77.23,74.9,4.89,8.7,7.5,18.82,10.71,28.46.48,1.42-1,4.87-2.45,5.61C2289.1,203.15,2273.5,210.83,2257.45,218.86Z"/><path class="cls-3" d="M2169.88,337.7c-22.69-73.06-36.46-145-7.27-224.11,11.33,10,21.56,18.8,31.4,28,1,1,.31,4.47-.4,6.59-8.93,26.89-15.41,54.28-16.27,81.89-.72,23.27,1.26,46.47,3.13,69.52.55,6.79.32,12.68-2.68,19C2175.13,324.15,2173.05,330,2169.88,337.7Z"/><path class="cls-3" d="M2570.41,335.88c-2.15-8.68-4.4-17.14-6.28-25.7-.36-1.66.49-3.8,1.13-5.62,18.22-51.82,22.54-103.68,14.15-155.5-.76-4.68.11-7.54,4.2-10.53,10.48-7.66,20.7-15.7,33.4-25.39,1.67,15.77,4.2,29.28,4.36,43,.68,62.66-20.24,121.37-49.7,178.38A8.22,8.22,0,0,1,2570.41,335.88Z"/><path class="cls-5" d="M2180.33,243.32q-2.73,35.15-5.39,70.3-7.52,99.72-15,199.44a45.62,45.62,0,0,0,5.49,17.05c9.71,17.1,24.84,25.82,45.24,26,15.15.1,30.32-.05,45.48-.11q28.92-.11,57.85-.24,33.34-.11,66.68-.14l116.1-.35c1.37,0,2.74,0,4.11,0,8.1-.21,16.23.27,24.3-.76,27.54-3.52,49.65-26.9,52-54.37q2.59-29.91,5.24-59.82,2.73-31.35,5.45-62.71,2.53-29,5.11-58c1.54-17.41,3.16-34.81,4.59-52.22.67-8.2,1.67-16.5,1.31-24.59-.95-21.1-15.9-38.74-36.3-44.1-7.23-1.9-14.75-1.77-22.28-1.75l-124.73.37q-30,.1-60,.24-58.42.16-116.85.34a51.58,51.58,0,0,0-9.35.75c-20.51,3.85-35.59,15.2-45,34A98.55,98.55,0,0,0,2180.33,243.32Z"/><path class="cls-6" d="M2150,281.4q-2.71,35.14-5.34,70.3-7.47,99.72-14.85,199.44a45.46,45.46,0,0,0,5.5,17.05c9.7,17.1,24.83,25.82,45.21,26,15.13.1,30.29,0,45.44-.11q28.89-.1,57.79-.24,33.32-.1,66.63-.14l116-.35c1.37,0,2.74,0,4.11,0,8.09-.2,16.22.28,24.28-.75,27.51-3.52,49.59-26.9,52-54.37q2.58-29.91,5.2-59.82,2.73-31.35,5.42-62.71,2.52-29,5.07-58c1.52-17.41,3.14-34.81,4.56-52.22.66-8.2,1.66-16.5,1.29-24.59-1-21.1-15.91-38.74-36.29-44.1-7.23-1.9-14.74-1.78-22.26-1.75l-124.63.37q-30,.1-59.93.24-58.38.17-116.75.34a51.47,51.47,0,0,0-9.34.75c-20.48,3.85-35.55,15.2-44.93,34A100.63,100.63,0,0,0,2150,281.4Zm92.09-14.89c13.75-.12,27.5-.23,41.24-.26q64.21-.17,128.44-.28c22.43-.05,44.88-.24,67.31-.17,26.63.07,47.45,18.65,50.1,44.63a61.06,61.06,0,0,1,0,11.23c-1.54,18.85-3.24,37.69-4.87,56.54q-5.37,62.19-10.78,124.37c-.49,5.59-.9,11.35-2.61,16.73-7.32,23.18-26.72,39.36-48.62,42.46-7,1-14,.87-21,.91-30.13.18-60.24.23-90.35.33l-15,0v0c-39,.12-77.94.31-116.89.33-17.8,0-31.87-7-41.92-20.87-7.16-9.89-10-21.28-9-34q6.15-78.31,12.26-156.65c.84-10.75,1.66-21.51,2.58-32.27a51.53,51.53,0,0,1,6.28-20.48c10.06-18.22,25.37-28.86,45.59-32.11A47.8,47.8,0,0,1,2242.07,266.51Z"/><path class="cls-5" d="M2335.91,563c-39,.12-77.94.31-116.89.33-17.8,0-31.87-7-41.92-20.87-7.16-9.89-10-21.28-9-34q6.15-78.31,12.26-156.65c.84-10.75,1.66-21.51,2.58-32.27a51.53,51.53,0,0,1,6.28-20.48c10.06-18.22,25.36-28.86,45.59-32.11a47.8,47.8,0,0,1,7.26-.5c13.75-.12,27.5-.23,41.24-.26q64.21-.17,128.43-.28c22.44-.05,44.89-.24,67.32-.17,26.63.07,47.45,18.65,50.1,44.63a61.06,61.06,0,0,1,0,11.23c-1.54,18.85-3.24,37.69-4.87,56.54q-5.37,62.19-10.78,124.37c-.49,5.59-.9,11.35-2.61,16.73-7.32,23.18-26.72,39.36-48.62,42.46-7,1-14,.87-21,.91-30.13.18-60.24.23-90.35.33l-15,0ZM2190.77,424.72c-.07.9-.12,1.58-.18,2.26q-3.27,41.53-6.53,83.06a24.28,24.28,0,0,0-.09,3.07c1,20,16.14,34.3,36.44,34.24l28.61-.09q102.32-.3,204.63-.64a53.49,53.49,0,0,0,6.18-.36c19.32-2.34,35.52-19,37.18-38.15q3.36-38.85,6.69-77.7c.19-2.18.37-4.35.57-6.64Zm1.51-19.38,313.65-.95.21-2.46q3.41-39.68,6.8-79.37a66.4,66.4,0,0,0,.24-6.76c-.21-18.69-15.94-34-34.94-34q-26.82,0-53.65.15-69,.27-138,.54c-13.33.05-26.65,0-40,0a73.72,73.72,0,0,0-12.43.62,42.66,42.66,0,0,0-35.36,38.59q-3.2,40.5-6.37,81C2192.42,403.56,2192.36,404.38,2192.28,405.34Z"/><path class="cls-3" d="M2190.77,424.72l313.5-1c-.2,2.29-.38,4.46-.57,6.64q-3.35,38.85-6.69,77.7c-1.66,19.19-17.86,35.81-37.18,38.15a53.49,53.49,0,0,1-6.18.36q-102.32.35-204.63.64l-28.61.09c-20.3.06-35.49-14.2-36.44-34.24a24.28,24.28,0,0,1,.09-3.07q3.26-41.54,6.53-83.06C2190.65,426.3,2190.7,425.62,2190.77,424.72Z"/><path class="cls-3" d="M2192.28,405.34c.08-1,.14-1.78.21-2.6q3.18-40.5,6.37-81a42.66,42.66,0,0,1,35.36-38.59,73.72,73.72,0,0,1,12.43-.62c13.32-.07,26.64,0,40,0q69-.24,138-.54,26.84-.1,53.65-.15c19,0,34.73,15.31,34.94,34a66.4,66.4,0,0,1-.24,6.76q-3.37,39.69-6.8,79.37l-.21,2.46Z"/><path class="cls-2" d="M2461.26,93.23c-3.39,3.71-6.62,7.65-10.19,11.08a148.16,148.16,0,0,1-12.2,10.5,145.61,145.61,0,0,1-13.06,9c-6.26,3.79-12.63,7.25-19,10.67-3.57,1.91-7.23,3.5-10.88,5.14-2.89,1.3-5.81,2.44-8.72,3.65-.19.08-.37.22-.95.56,2.77,1.29,5.21,2.53,7.72,3.58a56.12,56.12,0,0,0,17.46,4.08,70.58,70.58,0,0,0,24.78-2.61,90.14,90.14,0,0,0,30.73-16.1,108.82,108.82,0,0,0,36.38-52.67c3.58-11.51,4.83-22.94,3.13-34.2-.55-3.73-.54-3.79-3.84-2.91-9.27,2.46-18.56,4.84-27.82,7.52A124.84,124.84,0,0,0,2446,62.68a127.39,127.39,0,0,0-22.74,17.05,153.5,153.5,0,0,0-18.89,21.48,193.13,193.13,0,0,0-14.83,23.57c-2,3.8-3.91,7.7-6.06,12,1.69-.52,3.06-.86,4.4-1.36,8.53-3.19,17.11-6.08,25.54-9.71a151.5,151.5,0,0,0,29.37-16.52,128.17,128.17,0,0,0,15.09-12.84c1.1-1.09,2.07-2.36,3.1-3.55Z"/><path class="cls-2" d="M2326,58.34c1.74,4.32,3.25,8.81,5.27,12.9a114.47,114.47,0,0,0,7.44,12.81,108.43,108.43,0,0,0,8.83,11.61c4.44,5,9.13,9.82,13.83,14.55,2.64,2.65,5.5,5,8.32,7.4,2.23,1.91,4.56,3.67,6.85,5.5a8.61,8.61,0,0,1,.68.75c-3.16.59-6,1.2-8.79,1.62a59.23,59.23,0,0,1-18.28-.14,63.28,63.28,0,0,1-22.58-8.2,71.18,71.18,0,0,1-22.87-22.42,84.29,84.29,0,0,1-11-24.71,93.07,93.07,0,0,1-2.62-33.83A80.17,80.17,0,0,1,2301.85,2.9c2-3.42,2-3.49,4.83-1.89,7.86,4.48,15.77,8.89,23.52,13.56a99.94,99.94,0,0,1,22.64,18.2,99,99,0,0,1,14.84,21.47,123.33,123.33,0,0,1,9.4,24.82,164.88,164.88,0,0,1,4.69,25.87c.41,4.09.63,8.24,1,12.81-1.4-.88-2.57-1.52-3.65-2.31-6.85-5-13.87-9.74-20.46-15.13a119.27,119.27,0,0,1-21.38-22.51A100.61,100.61,0,0,1,2328,62.08c-.61-1.29-1-2.73-1.53-4.1Z"/><path class="cls-5" d="M2384.7,490.79c-14.42-.63-28.85-1.27-43.28-1.83a2.51,2.51,0,0,0-1.9,1.09c-1.61,4.67-5.3,7.51-9.14,10.09-16.12,10.85-41.41,10.44-55.34-.83-4.16-3.37-7.16-7.58-7.83-13.17-.94-7.95,2.89-14.12,9.08-19.21s13.64-7.9,21.4-9.13c11.48-1.83,22.33-.63,32.16,4.76a25.54,25.54,0,0,1,9.81,9,5,5,0,0,1,1.06,2.12c.06,3,2,2.82,4.28,2.74q29.52-1.12,59-2.13c8.1-.29,16.2-.6,24.3-.87,4.24-.14,5.68,1.4,5.32,5.55-.25,2.94-.5,5.87-.77,8.81-.29,3.13-2.23,5-5.37,4.83-14.27-.58-28.54-1.23-42.82-1.85Z"/><path class="cls-5" d="M2278.7,371.75h2.6c14.08,0,28.17-.06,42.25,0,5.16,0,5.91-2.72,5.43-6.62-.13-1-1.59-1.87-2.65-2.45-.69-.38-1.76-.15-2.67-.15H2277.2l.38-4.53h47.17c4.45,0,6.41-2.31,5.49-6.57-.45-2.07-2.13-2.55-4.09-2.55h-47.82l.43-5.17h47.51c3.69,0,5.09-1.35,5.25-4.94.15-3.11-1-4.26-4.47-4.26q-21.48,0-43,0h-2.71a17.59,17.59,0,0,1,10.48-6.8,19.68,19.68,0,0,1,4.32-.44q20.7,0,41.39,0c7.56,0,13.37,4.48,14.39,11.06a31.7,31.7,0,0,1,0,5.15c0,2.85.32,3.27,3.08,3.17l75-2.6c3.49-.12,7-.24,10.47-.29s4.87,1.59,4.59,5q-.39,4.63-.81,9.27c-.31,3.32-2.11,5-5.51,4.88-8.9-.32-17.79-.72-26.69-1.1-19.6-.84-39.2-1.64-58.79-2.56-2.22-.1-2.9.71-2.88,2.68.14,11-9.73,16.65-18,16.47-13.6-.3-27.25-.07-40.88-.09A14.61,14.61,0,0,1,2278.7,371.75Z"/><path class="cls-6" d="M2385.26,352.82a17.86,17.86,0,0,1-17.5,16,14.54,14.54,0,0,1-14.75-16,17.85,17.85,0,0,1,17.5-16A14.51,14.51,0,0,1,2385.26,352.82Z"/><path class="cls-6" d="M2374.1,482.51a17.84,17.84,0,0,1-17.45,16,14.52,14.52,0,0,1-14.71-16,17.84,17.84,0,0,1,17.46-16A14.5,14.5,0,0,1,2374.1,482.51Z"/><polygon class="cls-7" points="2474.81 225.65 2285.26 225.65 2285.83 218.86 2475.41 218.86 2474.81 225.65"/><path class="cls-2" d="M573.59,223.62h57.65c58.29-2.07,119.89-50.35,138.29-110.37H608.21a261.53,261.53,0,0,0-27.09,1.45c-2.65-.17-5.29-.34-7.93-.53-49,1.18-98,.17-146.93.56-21.9.17-33.65,12-30.27,30.16,3,16.27,16.15,21.93,32.84,22,3.74,0,7.48,0,11.21,0a408.76,408.76,0,0,0-55.26,42.65c-1.7.08-3.41.22-5.12.26-49,1.18-98,.17-146.94.56-21.91.18-33.66,12-30.27,30.16,3,16.27,16.14,21.93,32.83,22,33.28.21,66.58-.35,99.85.28.5,0,1,.08,1.45.1a356.84,356.84,0,0,0-37.76,62.82q-124.23-.11-248.46,0c-8.78,0-17.67-.27-26.32.81C8.82,328.43.52,337.5,0,350.83-.44,363.22,5.94,373,20.48,375.69a144,144,0,0,0,26.06,2.47c76.62.19,153.23.08,229.85.15,1.19,0,2.25.16,3.39.21a242.9,242.9,0,0,0-8,62.25c-12.59.19-25.2-.17-37.76.43-19.95,1-32.17,11.67-31.8,26.8.39,16.22,11.67,25.53,32.1,26.3,6.27.24,12.56.07,18.84.08q13.25,0,26.48.09c.51,1.67.9,3.41,1.46,5a157.37,157.37,0,0,0,35.57,58.19c-20.81,0-41.63-.26-62.42.28-8.4.22-20.45,3.66-24,9.19-4.9,7.61-7.66,20.91-3.36,27.56,4.82,7.46,18.5,14.33,28.4,14.42q87.14.76,174.28.72c.18-.38.38-.76.57-1.14,7.25.67,14.64,1.14,22.29,1.14H506.9c60.7,0,125.59-49.67,144.2-110.36H487c-19.91,0-37.14-4.15-51.21-11.73-27.18-13.79-44.42-39.32-48.68-71h84.13c60.19,0,124.88-49.67,143.74-110.36H422.36C459.06,257.41,518,223.62,573.59,223.62Z"/><path class="cls-2" d="M246,152.63a105.67,105.67,0,0,0,58.81,20.22,87.61,87.61,0,0,0,33.31-5.13A68.44,68.44,0,0,0,359,155.48a54.12,54.12,0,0,0,11.3-13.25c1.36-2.27,2.56-4.64,4-7.25-.65.07-.87.07-1.06.11-3,.73-5.92,1.52-8.93,2.17-3.79.83-7.57,1.7-11.47,2.26-6.95,1-13.93,2-21,2.6a136,136,0,0,1-15.42.46,142.26,142.26,0,0,1-15.59-1.17c-4.77-.63-9.57-1.84-14.35-2.79,0-.18,0-.36,0-.54,1.49.34,3,.78,4.47,1a124.94,124.94,0,0,0,19.2,1.35,148.09,148.09,0,0,0,32.48-4c8.69-2,17.07-4.71,25.56-7.13,1.34-.38,2.61-.91,4.23-1.47-4.15-2.11-7.86-4.08-11.64-5.88a187.49,187.49,0,0,0-25.18-9.88,149.33,149.33,0,0,0-27.15-5.91,124.54,124.54,0,0,0-27.61-.23,121.09,121.09,0,0,0-29.54,7.14c-8.78,3.25-17.41,6.74-26.09,10.15-3.09,1.22-3,1.26-1.33,4.49C229,137.48,236.6,145.69,246,152.63Z"/><path class="cls-2" d="M182.12,469.39c-3.79.82-7.58,1.69-11.47,2.25-7,1-13.93,2-21,2.6a138.06,138.06,0,0,1-15.41.47,144.58,144.58,0,0,1-15.59-1.17c-4.77-.63-9.57-1.84-14.36-2.8,0-.18,0-.36,0-.54,1.49.34,3,.78,4.48,1a124.79,124.79,0,0,0,19.19,1.34,148.1,148.1,0,0,0,32.49-4c8.68-2,17.06-4.72,25.56-7.14,1.34-.38,2.61-.9,4.22-1.47-4.14-2.1-7.85-4.07-11.63-5.88a189.37,189.37,0,0,0-25.18-9.88,150.1,150.1,0,0,0-27.16-5.91,123.84,123.84,0,0,0-27.6-.22,121.28,121.28,0,0,0-29.55,7.14c-8.78,3.24-17.41,6.73-26.08,10.15-3.09,1.22-3,1.26-1.33,4.49,5.17,9.78,12.74,18,22.16,24.93A105.73,105.73,0,0,0,122.64,505,87.36,87.36,0,0,0,156,499.84a68.34,68.34,0,0,0,20.88-12.23,54.53,54.53,0,0,0,11.3-13.25c1.36-2.27,2.55-4.65,4-7.25a9,9,0,0,0-1.06.11C188.07,467.94,185.12,468.74,182.12,469.39Z"/><path class="cls-2" d="M110,244.78a62.78,62.78,0,0,0,35,12,51.84,51.84,0,0,0,19.8-3.05,40.47,40.47,0,0,0,12.41-7.27,32.39,32.39,0,0,0,6.72-7.88c.81-1.35,1.52-2.76,2.36-4.31-.38,0-.51,0-.63.07-1.77.43-3.52.9-5.31,1.29-2.25.49-4.5,1-6.81,1.34-4.13.59-8.28,1.16-12.49,1.54a79.53,79.53,0,0,1-9.16.28,85.79,85.79,0,0,1-9.27-.7c-2.84-.37-5.69-1.09-8.53-1.66v-.32c.89.2,1.77.46,2.66.59a73.57,73.57,0,0,0,11.41.8,87.69,87.69,0,0,0,19.31-2.38c5.17-1.2,10.15-2.8,15.2-4.24.79-.22,1.55-.54,2.51-.87-2.46-1.25-4.67-2.43-6.92-3.5a111.66,111.66,0,0,0-15-5.87,88.75,88.75,0,0,0-16.14-3.51,73.93,73.93,0,0,0-16.41-.14,72.73,72.73,0,0,0-17.56,4.24c-5.22,1.93-10.35,4-15.51,6-1.84.72-1.8.75-.79,2.67A44,44,0,0,0,110,244.78Z"/></g></g></svg>