<svg xmlns="http://www.w3.org/2000/svg" width="29.25" height="29.25" viewBox="0 0 29.25 29.25">
  <defs>
    <style>
      .cls-1 {
        fill: rgba(55,65,81,0.9);
      }

      .cls-2 {
        fill: #374151;
      }
    </style>
  </defs>
  <g id="Grupo_4" data-name="Grupo 4" transform="translate(-51.375 -535)">
    <path id="Caminho_9" data-name="Caminho 9" class="cls-1" d="M17.986,3.375A14.625,14.625,0,1,0,32.625,18,14.62,14.62,0,0,0,17.986,3.375ZM18,29.7A11.7,11.7,0,1,1,29.7,18,11.7,11.7,0,0,1,18,29.7Z" transform="translate(48 531.625)"/>
    <path id="Icon_material-attach-money" data-name="Icon material-attach-money" class="cls-2" d="M14.408,12.623c-2.041-.607-2.7-1.234-2.7-2.211,0-1.121.908-1.9,2.428-1.9a1.992,1.992,0,0,1,2.248,2.159h1.987a4,4,0,0,0-2.887-3.917V4.5h-2.7V6.721a3.819,3.819,0,0,0-3.148,3.712c0,2.375,1.718,3.557,4.227,4.246,2.248.617,2.7,1.522,2.7,2.478,0,.709-.441,1.84-2.428,1.84-1.853,0-2.581-.946-2.68-2.159H9.48a4.1,4.1,0,0,0,3.309,3.938v2.231h2.7V20.8a3.612,3.612,0,0,0,3.148-3.65C18.635,14.226,16.45,13.229,14.408,12.623Z" transform="translate(51.942 536.118)"/>
  </g>
</svg>
